<svg width="16" height="16" viewBox="0 0 16 16" fill="none" xmlns="http://www.w3.org/2000/svg">
<path d="M8.00001 14.1167L7.03334 13.25C5.91112 12.2389 4.98334 11.3667 4.25001 10.6333C3.51668 9.9 2.93334 9.24166 2.50001 8.65833C2.06668 8.075 1.7639 7.53889 1.59168 7.05C1.41945 6.56111 1.33334 6.06111 1.33334 5.55C1.33334 4.50555 1.68334 3.63333 2.38334 2.93333C3.08334 2.23333 3.95557 1.88333 5.00001 1.88333C5.57779 1.88333 6.12779 2.00555 6.65001 2.25C7.17223 2.49444 7.62223 2.83889 8.00001 3.28333C8.37779 2.83889 8.82779 2.49444 9.35001 2.25C9.87223 2.00555 10.4222 1.88333 11 1.88333C12.0445 1.88333 12.9167 2.23333 13.6167 2.93333C14.3167 3.63333 14.6667 4.50555 14.6667 5.55C14.6667 6.06111 14.5806 6.56111 14.4083 7.05C14.2361 7.53889 13.9333 8.075 13.5 8.65833C13.0667 9.24166 12.4833 9.9 11.75 10.6333C11.0167 11.3667 10.0889 12.2389 8.96668 13.25L8.00001 14.1167Z" fill="#FF584E"/>
</svg>
